<svg xmlns="http://www.w3.org/2000/svg" viewBox="0 0 560 560"><defs><style>.cls-1{fill:#71cad2;}</style></defs><title>TechLlama</title><g id="Layer_1" data-name="Layer 1"><path class="cls-1" d="M139.63,560,103.77,381l-38.36-8.34,60.88-64.21,193.18-13.62L319.2,85.23c21.95-14.43,47.85-24.35,78.94-28.36l60,31.13a7.17,7.17,0,0,1,3.36,9l-6.73,17-16.05-1.92a1.59,1.59,0,0,0-.6,3.12l14.65,3.87-3.19,8.08-68.38.48,67.47,192L332.23,560l-3.88-119.63L178,413.51Z"/><polygon class="cls-1" points="400.78 31.06 384.35 0 377.57 33.21 342.67 81.52 365.12 0 328.35 33.1 329.96 127.68 342.06 83.74 400.78 31.06"/><polygon class="cls-1" points="319.2 126.45 319.2 85.23 298.9 133.04 316.4 133.04 299.65 172.51 316.16 172.51 299.65 211.43 317.11 211.43 299.65 252.57 319.94 252.57 319.94 211.43 319.94 204.75 319.94 172.51 319.94 163.62 319.94 124.7 319.2 126.45"/></g></svg>